<mxfile host="app.diagrams.net" modified="2022-07-09T01:58:41.005Z" agent="5.0 (Macintosh; Intel Mac OS X 10_15_7) AppleWebKit/537.36 (KHTML, like Gecko) Chrome/103.0.0.0 Safari/537.36" etag="XIBkhQrSUwdJKr0PEE9g" version="20.0.4" type="github">
  <diagram id="C5RBs43oDa-KdzZeNtuy" name="Page-1">
    <mxGraphModel dx="946" dy="614" grid="1" gridSize="10" guides="1" tooltips="1" connect="1" arrows="1" fold="1" page="1" pageScale="1" pageWidth="827" pageHeight="1169" math="0" shadow="0">
      <root>
        <mxCell id="WIyWlLk6GJQsqaUBKTNV-0" />
        <mxCell id="WIyWlLk6GJQsqaUBKTNV-1" parent="WIyWlLk6GJQsqaUBKTNV-0" />
        <mxCell id="IT9pvEG1z_3wf3WyD3Ch-1" value="事实表&lt;br&gt;&lt;br&gt;&lt;br&gt;&lt;br&gt;订单号，&lt;br&gt;商品id，&lt;br&gt;用户id，&lt;br&gt;下单地址，&lt;br&gt;金额，&lt;br&gt;日期" style="rounded=0;whiteSpace=wrap;html=1;" vertex="1" parent="WIyWlLk6GJQsqaUBKTNV-1">
          <mxGeometry x="270" y="190" width="110" height="270" as="geometry" />
        </mxCell>
        <mxCell id="IT9pvEG1z_3wf3WyD3Ch-2" value="用户维表&lt;br&gt;" style="whiteSpace=wrap;html=1;aspect=fixed;" vertex="1" parent="WIyWlLk6GJQsqaUBKTNV-1">
          <mxGeometry x="550" y="190" width="80" height="80" as="geometry" />
        </mxCell>
        <mxCell id="IT9pvEG1z_3wf3WyD3Ch-3" value="商品维表" style="whiteSpace=wrap;html=1;aspect=fixed;" vertex="1" parent="WIyWlLk6GJQsqaUBKTNV-1">
          <mxGeometry x="550" y="350" width="80" height="80" as="geometry" />
        </mxCell>
        <mxCell id="IT9pvEG1z_3wf3WyD3Ch-4" value="地区维表" style="whiteSpace=wrap;html=1;aspect=fixed;" vertex="1" parent="WIyWlLk6GJQsqaUBKTNV-1">
          <mxGeometry x="40" y="180" width="80" height="80" as="geometry" />
        </mxCell>
        <mxCell id="IT9pvEG1z_3wf3WyD3Ch-5" value="日期维表" style="whiteSpace=wrap;html=1;aspect=fixed;" vertex="1" parent="WIyWlLk6GJQsqaUBKTNV-1">
          <mxGeometry x="30" y="390" width="80" height="80" as="geometry" />
        </mxCell>
        <mxCell id="IT9pvEG1z_3wf3WyD3Ch-7" value="" style="endArrow=classic;html=1;rounded=0;entryX=0;entryY=0.5;entryDx=0;entryDy=0;exitX=1.027;exitY=0.45;exitDx=0;exitDy=0;exitPerimeter=0;" edge="1" parent="WIyWlLk6GJQsqaUBKTNV-1" source="IT9pvEG1z_3wf3WyD3Ch-1" target="IT9pvEG1z_3wf3WyD3Ch-2">
          <mxGeometry width="50" height="50" relative="1" as="geometry">
            <mxPoint x="390" y="390" as="sourcePoint" />
            <mxPoint x="440" y="340" as="targetPoint" />
          </mxGeometry>
        </mxCell>
        <mxCell id="IT9pvEG1z_3wf3WyD3Ch-9" value="" style="endArrow=classic;html=1;rounded=0;entryX=0;entryY=0.5;entryDx=0;entryDy=0;exitX=1;exitY=0.546;exitDx=0;exitDy=0;exitPerimeter=0;" edge="1" parent="WIyWlLk6GJQsqaUBKTNV-1" source="IT9pvEG1z_3wf3WyD3Ch-1" target="IT9pvEG1z_3wf3WyD3Ch-3">
          <mxGeometry width="50" height="50" relative="1" as="geometry">
            <mxPoint x="392.97" y="321.5" as="sourcePoint" />
            <mxPoint x="560" y="240" as="targetPoint" />
          </mxGeometry>
        </mxCell>
        <mxCell id="IT9pvEG1z_3wf3WyD3Ch-11" value="" style="endArrow=classic;html=1;rounded=0;entryX=1;entryY=0.5;entryDx=0;entryDy=0;exitX=0.009;exitY=0.435;exitDx=0;exitDy=0;exitPerimeter=0;" edge="1" parent="WIyWlLk6GJQsqaUBKTNV-1" source="IT9pvEG1z_3wf3WyD3Ch-1" target="IT9pvEG1z_3wf3WyD3Ch-4">
          <mxGeometry width="50" height="50" relative="1" as="geometry">
            <mxPoint x="402.97" y="331.5" as="sourcePoint" />
            <mxPoint x="570" y="250" as="targetPoint" />
          </mxGeometry>
        </mxCell>
        <mxCell id="IT9pvEG1z_3wf3WyD3Ch-13" value="" style="endArrow=classic;html=1;rounded=0;entryX=1;entryY=0.606;entryDx=0;entryDy=0;exitX=-0.027;exitY=0.706;exitDx=0;exitDy=0;exitPerimeter=0;entryPerimeter=0;" edge="1" parent="WIyWlLk6GJQsqaUBKTNV-1" source="IT9pvEG1z_3wf3WyD3Ch-1" target="IT9pvEG1z_3wf3WyD3Ch-5">
          <mxGeometry width="50" height="50" relative="1" as="geometry">
            <mxPoint x="412.97" y="341.5" as="sourcePoint" />
            <mxPoint x="580" y="260" as="targetPoint" />
          </mxGeometry>
        </mxCell>
      </root>
    </mxGraphModel>
  </diagram>
</mxfile>
